<svg xmlns="http://www.w3.org/2000/svg" width="600" height="600" viewBox="0 0 600 600">
  <defs>
    <linearGradient id="bg" x1="0" y1="0" x2="0" y2="1"><stop offset="0" stop-color="#eef4fc"/><stop offset="1" stop-color="#d3e3f7"/></linearGradient>
    <filter id="soft" x="-20%" y="-50%" width="140%" height="200%"><feGaussianBlur stdDeviation="10"/></filter>
  </defs>
  <rect width="600" height="600" fill="url(#bg)"/>
  <ellipse cx="300" cy="505" rx="190" ry="20" fill="#000" opacity=".13" filter="url(#soft)"/>
  <rect x="185" y="318" width="230" height="160" rx="72" fill="#f7f8fb" stroke="#d3d9e3" stroke-width="4"/>
  <path d="M190 372 H410" stroke="#d3d9e3" stroke-width="4"/><circle cx="300" cy="420" r="6" fill="#1baf7a"/>
  <g transform="rotate(-18 235 230)"><rect x="222" y="232" width="26" height="92" rx="13" fill="#3d7ddb"/>
    <circle cx="235" cy="228" r="44" fill="#3d7ddb"/><ellipse cx="214" cy="215" rx="16" ry="20" fill="#2a5ea9"/>
    <circle cx="248" cy="214" r="10" fill="#79a8ee"/></g>
  <g transform="rotate(18 365 230)"><rect x="352" y="232" width="26" height="92" rx="13" fill="#3d7ddb"/>
    <circle cx="365" cy="228" r="44" fill="#3d7ddb"/><ellipse cx="386" cy="215" rx="16" ry="20" fill="#2a5ea9"/>
    <circle cx="352" cy="214" r="10" fill="#79a8ee"/></g>
</svg>