<svg xmlns="http://www.w3.org/2000/svg" width="600" height="600" viewBox="0 0 600 600">
  <defs>
    <linearGradient id="bg" x1="0" y1="0" x2="0" y2="1"><stop offset="0" stop-color="#fdf1ea"/><stop offset="1" stop-color="#f7dccd"/></linearGradient>
    <filter id="soft" x="-20%" y="-50%" width="140%" height="200%"><feGaussianBlur stdDeviation="10"/></filter>
  </defs>
  <rect width="600" height="600" fill="url(#bg)"/>
  <ellipse cx="300" cy="505" rx="190" ry="20" fill="#000" opacity=".13" filter="url(#soft)"/>
  <path d="M220 130 L300 160 L380 130 L470 190 L500 420 L440 430 L420 300 L420 480 H180 L180 300 L160 430 L100 420 L130 190 Z" fill="#3f6ca9"/>
  <path d="M220 130 L300 160 L380 130 L360 190 L300 230 L240 190 Z" fill="#2e5385"/>
  <path d="M300 230 V480" stroke="#2e5385" stroke-width="6"/>
  <g fill="#d4a72c"><circle cx="314" cy="270" r="7"/><circle cx="314" cy="330" r="7"/><circle cx="314" cy="390" r="7"/><circle cx="314" cy="450" r="7"/></g>
  <g fill="none" stroke="#e9c46a" stroke-width="3" stroke-dasharray="7 6">
    <rect x="212" y="270" width="64" height="58" rx="6"/><rect x="330" y="270" width="64" height="58" rx="6"/>
    <path d="M184 470 H416"/><path d="M135 200 L160 420"/><path d="M465 200 L440 420"/></g>
</svg>